<svg version="1.1" xmlns="http://www.w3.org/2000/svg"><symbol id="C" viewBox="0 0 1024 1024"><defs><style/></defs><path d="M496.64 744.96c53.248 0 96.768-14.848 130.56-45.056 31.232-28.16 51.712-67.584 61.44-117.76h-92.16c-6.144 26.624-17.408 47.104-34.304 61.44-16.896 14.336-38.4 21.504-64 21.504-36.864 0-65.536-15.36-84.992-45.568-16.896-26.624-25.6-61.952-25.6-105.472 0-55.808 12.8-97.28 38.4-124.416 19.456-19.968 43.52-30.208 71.68-30.208 33.28 0 58.368 9.728 75.264 28.672 9.216 9.728 16.896 25.6 23.04 48.128h92.16c0-37.888-15.36-72.192-46.592-102.912-35.84-35.84-83.968-53.76-144.384-53.76-59.904 0-108.032 19.456-144.384 58.88-39.424 41.984-58.88 100.352-58.88 175.104s18.944 132.608 56.32 174.08C386.56 725.504 435.2 744.96 496.64 744.96z" fill="#fff"/><path d="M800.768 97.792H216.576c-78.848 0-118.272 39.424-118.272 117.76v584.192c0 78.848 39.424 118.272 118.272 118.272h584.192c78.336 0 117.76-39.424 117.76-118.272V215.552c-.512-78.336-39.424-117.76-117.76-117.76zm54.272 707.072c0 27.648-22.528 50.176-50.176 50.176h-593.92c-27.648 0-50.176-22.528-50.176-50.176v-593.92c0-27.648 22.528-50.176 50.176-50.176h593.92c27.648 0 50.176 22.528 50.176 50.176v593.92z" fill="#fff"/></symbol><symbol id="close" viewBox="0 0 1024 1024"><defs><style/></defs><path d="M521.694 449.297L111.41 39.014a51.2 51.2 0 1 0-72.43 72.363l410.282 410.317L38.98 932.01a51.2 51.2 0 1 0 72.397 72.396l410.317-410.282 410.317 410.282a51.2 51.2 0 1 0 72.396-72.362L594.125 521.694l410.282-410.283a51.2 51.2 0 1 0-72.396-72.397L521.728 449.297z" fill="#1976d2"/></symbol><symbol id="cordova" viewBox="0 0 1024 1024"><defs><style/></defs><path d="M826.182 878.546H701.818l8.728-104.728h-61.09l-8.728 104.728H383.272l-8.728-104.728h-61.09l8.728 104.728H197.818L128 424.728l174.546-279.272h418.91L896 424.728l-69.818 453.818zM686.546 285.09H574.338l7.482 52.364H442.184l7.482-52.364H337.458L267.64 424.726 302.546 704h418.91l34.91-279.272-69.82-139.638zm-61.092 326.226c-9.64 0-17.454-29.07-17.454-64.93 0-35.86 7.816-64.93 17.454-64.93 9.64 0 17.454 29.07 17.454 64.93.002 35.86-7.814 64.93-17.454 64.93zm-220.364 5.412c-9.64 0-17.454-29.07-17.454-64.93 0-35.86 7.816-64.93 17.454-64.93s17.454 29.07 17.454 64.93c.002 35.858-7.814 64.93-17.454 64.93z" fill="#fff"/></symbol><symbol id="css3" viewBox="0 0 1024 1024"><defs><style/></defs><path d="M64 0h896l-81.493 920.021L511.019 1024l-365.44-104.021L64 0zm729.173 188.288l-562.346-.128 9.088 111.872 432 .085L661.035 416H377.728l10.24 109.781h263.765l-15.616 150.315-124.16 34.304-126.122-34.56-8.022-90.027h-111.36l12.374 164.48L512 822.955l229.248-65.28 51.925-569.344z" fill="#fff"/></symbol><symbol id="email" viewBox="0 0 1024 1024"><defs><style/></defs><path d="M981.333 255.2c-.533-70.133-57.6-127.2-128-127.2H170.667c-70.4 0-127.467 56.8-128 127.2V768c0 70.667 57.333 128 128 128h682.666c70.667 0 128-57.333 128-128V255.2zm-810.666-41.867h682.666c16.8 0 31.2 9.6 38.134 23.734L512 502.667l-379.467-265.6c6.934-14.134 21.334-23.734 38.134-23.734zm682.666 597.334H170.667C147.2 810.667 128 791.467 128 768V337.867L487.467 589.6c7.466 5.067 16 7.733 24.533 7.733s17.067-2.666 24.533-7.733L896 337.867V768c0 23.467-19.2 42.667-42.667 42.667z" fill="#fff"/></symbol><symbol id="github" viewBox="0 0 1024 1024"><defs><style/></defs><path d="M34.133 524.8c0 208.642 133.713 386.054 320.121 451.218 25.115 6.382 21.213-11.629 21.213-23.733v-82.837c-144.941 16.96-150.748-78.992-160.533-95.046-19.733-33.6-66.133-42.133-52.267-58.133 33.067-17.067 66.667 4.267 105.6 61.867 28.22 41.75 83.057 34.746 111.102 27.729 6.128-25.067 19.178-47.419 37.008-64.916-149.951-26.698-212.643-118.366-212.643-227.347 0-52.743 17.41-101.434 51.696-140.665-21.678-64.746 2.086-119.933 5.197-128.226 61.996-5.636 126.454 44.35 131.426 48.288 35.322-9.44 75.511-14.597 120.481-14.597 45.252 0 85.664 5.222 121.147 14.777 12.108-9.21 71.877-52.052 129.52-46.813 3.074 8.198 26.331 62.214 5.929 125.991 34.622 39.331 52.205 88.241 52.205 141.245 0 109.199-62.944 201.017-213.543 227.505 25.15 24.765 40.743 59.21 40.743 97.303v120.155c.802 9.571 0 19.213 16.092 19.213 189.075-63.683 325.242-242.428 325.242-452.976 0-263.919-213.948-477.867-477.867-477.867-263.918 0-477.867 213.948-477.867 477.867z" fill="#fff"/></symbol><symbol id="html5" viewBox="0 0 1024 1024"><defs><style/></defs><path d="M755.42 341.138l9.142-99.986h-505.16l26.843 305.152H635.94L623.36 676.608l-112.567 30.281-112.018-30.281-7.424-80.018h-99.986l12.58 158.866 206.848 57.161h2.304v-.585l205.13-56.576 28.562-310.857H378.77l-8.557-103.424h385.133zM109.713 73.143h804.572l-73.143 821.723-330.277 92.563-328.009-92.563z" fill="#fff"/></symbol><symbol id="java" viewBox="0 0 1024 1024"><defs><style/></defs><path d="M717.934 840.117c2.073-26.377-5.318-35.187-32.366-34.003-13.616.595-27.105 3.989-42.044 6.34l-4.476-18.925c26.335-9.587 51.841-16.177 79.043-9.638 18.986 4.565 31.348 16.258 31.978 35.584 1.239 38.148.365 76.363.365 115.881-10.515-1.867-24.836 8.807-27.187-9.354-15.981 4.143-31.965 10.669-48.365 11.97-23.19 1.841-38.019-10.502-42.32-30.272-4.882-22.409 4.113-45.116 24.463-52.614 18.965-6.994 39.444-9.884 60.91-14.97zm.636 23.993c-14.549 2.117-27.218 2.974-39.346 5.997-12.211 3.049-18.55 16.587-14.975 28.314 3.798 12.448 14.721 18.319 28.039 15.07 22.276-5.442 26.412-10.831 26.284-34.238-.023-3.761-.002-7.521-.002-15.142zm-249.755 71.023h-22.838l-4.358-11.842c-1.554.179-3.146-.113-4.036.542-13.504 9.939-28.201 15.661-45.357 14.822-21.521-1.056-35.114-10.163-40.371-28.038-5.974-20.32.567-43.104 18.89-52.418 14.055-7.147 30.558-9.668 46.153-13.493 6.341-1.559 13.168-1.129 19.609-1.589 3.44-27.727-4.911-37.645-31.125-37.161-7.111.132-14.261 1.267-21.281 2.554-6.918 1.265-13.697 3.307-20.435 4.985-7.461-19.424-7.857-21.282 10.578-25.214 18.779-4.006 38.62-6.276 57.679-4.902 23.63 1.7 35.179 13.263 36.654 36.676 2.171 34.357 1.181 68.911 1.419 103.383.023 3.697-.729 7.398-1.181 11.697zm-32.262-70.791c-13.38 1.854-26.207 2.581-38.461 5.619-12.359 3.063-18.051 15.763-14.644 28.422 3.095 11.499 12.967 18.398 25.166 15.413 30.331-7.419 32.321-12.497 27.939-49.455zm80.11-474.613c-29.467-29.523-63.475-55.253-79.148-96.295-7.358-19.265-7.57-39.042 6.876-53.971 23.817-24.617 49.915-47.03 75.22-70.188 10.929-10 22.816-18.995 33.331-29.396 29.373-29.053 43.039-63.447 33.563-105.414 17.796 18.915 20.593 41.489 15.153 64.989-9.293 40.16-36.252 68.535-66.131 94.659-14.379 12.571-29.573 24.442-42.51 38.385-29.991 32.33-32.067 64.294-8.125 101.396 11.525 17.859 23.428 35.472 35.164 53.196-1.135.879-2.263 1.76-3.394 2.64zm-29.518 396.142c1.808-.943 2.215-1.338 2.635-1.35 32.743-1.013 32.436-.924 41.503 30.575 7.843 27.236 16.484 54.246 24.777 81.357 1.296.198 2.593.395 3.892.595l27.603-112.16h33.116c-7.733 29.353-14.4 57.423-22.658 85.02-5.456 18.242-13.671 35.644-19.725 53.728-3.365 10.054-9.305 13.741-19.313 12.228-1.406-.211-2.922-.269-4.3.015-16.18 3.33-23.478-3.639-27.901-19.411-12.218-43.586-26.171-86.69-39.627-130.596zm237.789-190.913c12.017 9.978-6.81 38.14-78.7 47.908-388.337 39.916-368.483-6.714-369.035-16.64-1.579-28.409 71.941-42.012 101.553-37.299-19.738 7.62-74.002 40.91 1.213 43.561 53.967 2.82 108.128 6.699 162.025 4.781 50.895-1.815 182.438-21.958 182.944-42.311zM278.381 990.275l-16.103-19.571c30.777-14.398 33.257-41.116 32.826-70.084-.756-50.769-.16-101.557-.13-152.341.002-5.201 0-10.4 0-16.894h33.918c.22 3.729.627 7.42.627 11.104 0 56.531.193 113.067-.173 169.598-.269 41.407-11.694 58.782-50.965 78.19zm387.065-822.904c-21.126 14.121-39.993 25.627-57.567 38.845-12.879 9.684-25.317 20.553-35.726 32.787-16.841 19.787-16.823 34.955-2.882 57.211 5.567 8.883 11.328 17.68 17.555 26.103 13.102 17.724 12.658 36.591.809 53.366-9.75 13.803-23.533 24.756-37.775 39.261-.615-5.917-1.106-7.027-.742-7.618 18.492-30.187 18.05-37.452-4.147-66.432-27.381-35.755-32.285-67.497-11.395-97.41 9.843-14.094 23.29-27.499 38.121-35.884 26.791-15.142 55.831-26.316 83.995-39.014 1.891-.848 4.289-.577 9.758-1.213zm-41.073 403.568c-160.089 47.191-222.26-9.852-222.26-9.852l20.81-18.112c8.034 5.773 50.29 32.523 140.949 13.351l60.5 14.612zM439.426 394.382s-100.196 36.02 7.043 38.523c14.633.342 210.172-14.884 210.172-14.884s-126.169 35.975-238.974 32.837c-151.031-15.07 21.653-56.577 21.759-56.476zm-23.34 72.461s-14.781 28.618 27.882 29.689c101.518 2.55 175.663-15.385 175.663-15.385s15.595 20.033 15.595 22.079c0 0-135.979 31.446-213.553 11.664-49.553-12.64-16.777-42.436-5.585-48.048zm345.033 166.255c-258.39 74.507-388.98 39.125-388.98 39.125s55.492 46.786 194.491 19.951c51.585-9.959 143.916-37.25 194.489-59.076zM658.133 514.487c11.762-7.633 22.711-13.267 31.859-21.025 12.982-11.011 26.18-22.409 36.41-35.836 9.67-12.693 11.041-28.524 1.667-43.091-9.542-14.825-49.002-16.011-54.32-16.835 2.527-2.019 7.611-5.798 7.611-5.798s19.391-5.098 44.734-1.986c35.03 7.678 47.081 45.126 25.694 74.251-17.629 24.011-62.002 48.374-93.654 50.321z" fill="#fff"/></symbol><symbol id="jquery" viewBox="0 0 1024 1024"><defs><style/></defs><path d="M65.45 250.624c-90.58 130.133-79.36 299.392-10.111 437.59 1.578 3.37 3.328 6.57 5.034 9.77.982 2.219 2.091 4.267 3.286 6.357.554 1.195 1.322 2.432 2.005 3.542 1.11 2.218 2.304 4.352 3.456 6.485l6.699 11.307c1.237 2.09 2.432 4.138 3.84 6.229 2.346 4.01 5.12 7.979 7.552 11.99 1.109 1.663 2.133 3.327 3.37 4.991a271.36 271.36 0 0 0 13.227 18.944c3.328 4.566 6.656 9.003 10.24 13.44 1.152 1.622 2.432 3.243 3.627 4.864l9.429 11.478c1.152 1.322 2.304 2.858 3.541 4.224 4.182 5.034 8.619 9.941 13.056 14.89 0 .086.128.171.214.299a133.547 133.547 0 0 0 18.09 18.773c3.414 3.499 6.827 6.998 10.454 10.411l4.309 4.139c4.736 4.437 9.472 8.874 14.464 13.141.085 0 .128.085.213.128l2.432 2.133c4.352 3.798 8.747 7.595 13.227 11.094l5.333 4.48c3.627 2.901 7.382 5.674 11.094 8.533l5.802 4.437c3.968 2.987 8.192 5.931 12.246 8.832 1.493 1.067 2.986 2.134 4.522 3.115l1.238.981 11.989 7.894 5.12 3.413c6.272 4.01 12.501 7.808 18.688 11.563a68.937 68.937 0 0 1 5.248 2.901c4.608 2.645 9.387 5.333 14.037 7.808 2.56 1.45 5.206 2.688 7.851 4.01 3.2 1.793 6.528 3.542 9.941 5.334a13.824 13.824 0 0 1 2.39.981c1.408.64 2.73 1.323 4.096 2.006 5.12 2.56 10.453 4.992 16 7.424 1.024.426 2.133.853 3.242 1.45a567.649 567.649 0 0 0 18.646 7.766c1.45.426 2.986 1.152 4.48 1.706 5.76 2.176 11.69 4.395 17.536 6.486l2.133.768c6.528 2.218 12.97 4.352 19.584 6.4 1.536.426 3.115.981 4.736 1.408 6.784 2.048 13.355 4.48 20.181 5.802 437.76 79.787 564.992-263.21 564.992-263.21-106.88 139.178-296.533 175.872-476.16 135.04-6.656-1.536-13.312-3.67-20.01-5.632a576.939 576.939 0 0 1-24.192-7.723l-2.646-1.024c-5.802-1.963-11.392-4.139-17.066-6.315a68.821 68.821 0 0 0-4.694-1.749 555.73 555.73 0 0 1-18.432-7.808c-1.322-.427-2.432-1.024-3.754-1.536a998.827 998.827 0 0 1-15.403-7.253 63.275 63.275 0 0 1-4.523-2.219c-4.01-1.877-8.021-4.01-11.946-6.059a168.192 168.192 0 0 1-7.979-4.096c-4.821-2.56-9.643-5.333-14.464-7.978-1.45-1.024-3.115-1.878-4.779-2.816a678.485 678.485 0 0 1-18.688-11.478 89.77 89.77 0 0 1-5.034-3.37 256.085 256.085 0 0 1-13.312-8.79c-1.494-.981-2.859-2.048-4.395-3.114a407.083 407.083 0 0 1-12.544-9.046c-1.792-1.45-3.712-2.816-5.632-4.266-3.755-2.944-7.552-5.76-11.307-8.875l-5.034-4.01a451.413 451.413 0 0 1-14.251-11.99 11.008 11.008 0 0 0-1.579-1.28L265.6 722.261l-4.267-4.01c-3.498-3.542-7.082-6.955-10.666-10.454l-4.139-4.266a386.987 386.987 0 0 1-13.184-13.782l-.64-.682a765.61 765.61 0 0 1-13.355-15.104c-1.152-1.323-2.218-2.731-3.413-4.139l-9.643-11.819a906.581 906.581 0 0 1-14.506-19.114C92.16 502.869 56.107 315.136 135.85 161.152" fill="#fff"/><path d="M346.496 141.013c-65.664 94.251-61.952 220.288-10.837 319.958a388.267 388.267 0 0 0 28.885 48.298c9.813 14.08 20.65 30.72 33.792 42.07 4.565 5.205 9.515 10.24 14.677 15.317l3.84 3.84c4.864 4.693 9.856 9.301 14.934 13.867l.64.554a420.48 420.48 0 0 0 17.664 14.592c1.45.982 2.688 2.134 4.096 3.115a527.948 527.948 0 0 0 18.218 13.44l.64.384c2.646 1.92 5.462 3.67 8.448 5.547 1.195.768 2.56 1.792 3.84 2.56 4.523 2.901 8.96 5.632 13.526 8.405.725.299 1.365.683 2.048.981 3.84 2.347 8.021 4.608 12.032 6.699 1.408.853 2.773 1.493 4.224 2.304 2.858 1.408 5.674 2.901 8.405 4.352l1.365.597c5.76 2.816 11.648 5.462 17.408 8.107 1.451.555 2.688 1.024 3.926 1.621a402.59 402.59 0 0 0 14.293 5.846c2.133.725 4.139 1.578 6.144 2.218 4.352 1.622 8.917 3.115 13.227 4.608l5.973 1.92c6.23 1.92 12.544 4.438 19.115 5.504 337.92 56.022 416.17-204.245 416.17-204.245-70.442 101.376-206.762 149.675-352.042 111.957a342.613 342.613 0 0 1-19.115-5.546c-2.048-.555-3.84-1.195-5.803-1.792-4.437-1.536-9.002-3.03-13.312-4.651l-6.144-2.304c-4.778-1.92-9.642-3.712-14.293-5.76-1.45-.64-2.773-1.067-3.883-1.707-5.973-2.688-11.989-5.333-17.792-8.192l-8.789-4.565-5.077-2.56a241.92 241.92 0 0 1-11.307-6.4 26.453 26.453 0 0 1-2.645-1.45c-4.523-2.817-9.216-5.547-13.526-8.449-1.45-.81-2.773-1.792-4.138-2.645l-8.875-5.803c-6.144-4.266-12.16-8.874-18.219-13.312-1.365-1.237-2.688-2.261-4.01-3.37-63.872-50.219-114.262-118.87-138.155-196.608-25.173-80.811-19.627-171.435 23.85-244.992" fill="#fff"/><path d="M582.827 59.05c-38.742 56.833-42.454 127.403-15.787 190.08 28.33 66.56 86.272 118.827 153.77 143.574 2.774 1.067 5.462 1.963 8.32 2.987l3.755 1.152c3.926 1.237 7.894 2.688 11.947 3.584 186.71 36.01 237.227-95.872 250.837-115.243-44.458 63.83-118.997 79.147-210.432 56.917a206.677 206.677 0 0 1-22.016-6.826 270.677 270.677 0 0 1-26.325-10.838 278.23 278.23 0 0 1-46.08-28.16c-81.92-62.037-132.65-180.48-79.232-276.949" fill="#fff"/></symbol><symbol id="js" viewBox="0 0 1024 1024"><defs><style/></defs><path d="M416 176.002H256v424.996c0 105.16-36.064 134.522-98.824 134.522-29.41 0-55.896-5.042-76.5-12.126L64 847.808C93.4 857.932 138.518 864 173.814 864 317.91 864 416 796.258 416 602.04V176.002zM764.926 160C610.04 160 512 247.996 512 364.308c0 100.166 75.502 162.88 185.282 203.33 79.4 28.316 110.784 53.616 110.784 95.078 0 45.512-36.278 74.85-104.896 74.85-63.726 0-121.578-21.28-160.788-42.51v-.042L512 821.454c37.278 21.276 106.882 42.51 182.334 42.51C875.708 863.96 960 766.86 960 652.568c0-97.1-53.916-159.8-170.556-204.326-86.278-34.382-122.54-53.59-122.54-97.084 0-34.4 31.376-65.738 96.086-65.738 63.692 0 107.488 21.414 133.01 34.582l38.25-128C894.25 174.44 840.376 160 764.926 160z" fill="#fff"/></symbol><symbol id="menu" viewBox="0 0 1024 1024"><defs><style/></defs><path d="M100.185 101.376H935.34c21.962 0 39.77 17.806 39.77 39.77 0 21.96-17.808 39.767-39.77 39.767H100.185c-21.963.001-39.769-17.806-39.769-39.768 0-21.963 17.806-39.769 39.77-39.769zm0 318.154H935.34c21.962 0 39.77 17.807 39.77 39.769 0 21.963-17.808 39.769-39.77 39.769H100.185c-21.963 0-39.769-17.807-39.769-39.77 0-21.96 17.806-39.768 39.77-39.768zm0 318.153H935.34c21.962 0 39.77 17.807 39.77 39.77 0 21.961-17.808 39.769-39.77 39.769H100.185c-21.963 0-39.769-17.808-39.769-39.77 0-21.962 17.806-39.769 39.77-39.769z" fill="#1976d2"/></symbol><symbol id="MongoDB" viewBox="0 0 1024 1024"><defs><style/></defs><path d="M512 1024C229.248 1024 0 794.752 0 512S229.248 0 512 0s512 229.248 512 512-229.248 512-512 512zm2.987-940.373C498.09 184.704 323.584 269.14 323.584 515.584c0 222.89 122.71 290.859 148.01 301.397 46.337-48.469 39.169-449.024 43.35-733.397zm6.058 54.826c3.158 177.963 38.486 662.571-22.613 689.92v81.11c0 11.605 13.44 18.474 20.821 18.474 7.339 0 19.2-7.381 19.2-22.144v-82.688c67.414-48.426 145.323-130.56 145.323-307.541 0-176.939-141.227-320.17-162.73-377.173z" fill="#fff"/></symbol><symbol id="mysql" viewBox="0 0 1024 1024"><defs><style/></defs><path d="M416.853 616.96v95.147h-56.746c-18.347-.427-20.054-10.667-19.627-14.934V616.96h-38.4c.853.853 0 81.067 0 82.773.427 16.64 21.333 31.147 54.613 31.574h59.734v1.28c0 3.413 2.56 15.36-19.2 17.92H302.08v19.2h99.84c16.64-.427 53.333-4.267 52.907-33.707V616.96zM266.24 563.2c-27.307-8.533-45.227-1.28-53.76 17.493L158.293 702.72l-52.48-122.453c-5.973-14.08-17.92-21.334-34.986-20.907a71.253 71.253 0 0 0-18.774 3.413c-11.52 3.414-17.066 10.24-17.066 23.894V730.88h38.4v-140.8l52.906 120.32c6.4 14.933 15.36 20.48 32.854 20.48s26.026-5.547 32.853-20.48l52.907-117.333V730.88h37.973V587.093c.427-13.653-5.12-20.48-16.64-23.893zM474.027 597.76v23.467c0 16.64 14.506 30.293 46.506 33.706H569.6c21.333 0 19.2 16.64 19.2 19.2v19.2a17.92 17.92 0 0 1-19.2 19.2h-95.573v19.2H569.6a82.347 82.347 0 0 0 34.133-7.253c16.214-7.253 22.614-17.493 22.614-30.293V666.88c0-29.44-36.267-30.293-57.174-30.293H531.2c-14.933 0-17.493-8.96-19.2-19.2v-19.2c1.707-7.68 5.12-17.92 18.347-19.2h96v-19.2h-90.454c-14.933 0-61.866 1.706-61.866 37.973zm342.613 95.147V597.76c0-20.053-13.227-34.133-41.387-37.973h-92.16c-28.16 3.84-37.973 17.92-37.973 37.973v95.147c0 18.346 10.24 29.866 31.573 35.413a72.107 72.107 0 0 0 19.627 2.987h67.413l21.334 19.2h43.093l-29.44-26.454c13.653-5.973 17.92-14.933 17.92-31.146zm-41.387 9.813l-10.24-9.387H721.92l21.333 19.2h-37.12a23.04 23.04 0 0 1-22.613-19.2v-93.44a21.333 21.333 0 0 1 22.613-20.906H755.2a24.747 24.747 0 0 1 23.467 19.2s.426 88.746.426 95.146a12.373 12.373 0 0 1-3.84 9.387zm125.44 9.387c-19.626 0-26.453-8.107-26.453-20.054V559.787h-37.973V692.48c0 23.04 13.226 35.84 47.36 38.4h104.96v-19.2zM692.907 317.867a43.52 43.52 0 0 0-10.667 1.28h.427a75.52 75.52 0 0 0 8.106 10.24l5.547 12.373h.427a14.507 14.507 0 0 0 5.12-12.8c-1.28-1.28-1.707-3.413-2.987-5.12s-4.267-3.84-5.973-5.973z" fill="#fff"/><path d="M866.133 489.387c3.84 5.12 19.2 8.106 26.027 11.093a160.427 160.427 0 0 1 17.493 6.827c8.96 5.12 17.494 11.52 25.6 17.493s16.64 9.387 17.494 14.507c-20.48-.427-36.267 1.28-49.494 6.826-3.84 1.707-9.813 1.707-10.666 6.4s2.56 5.547 3.84 8.107a64.853 64.853 0 0 0 13.226 15.787c5.12 3.84 10.667 8.106 16.214 11.52s21.333 9.386 30.72 15.786 11.52 8.107 17.066 12.374 4.694 5.12 8.107 6.4c-1.707-2.56-2.133-5.547-3.84-8.107l-7.68-7.68a124.587 124.587 0 0 0-26.88-25.6c-8.107-5.547-25.6-13.653-29.013-22.613h-.427a121.173 121.173 0 0 0 17.493-4.267c8.96-2.133 16.64-1.707 25.6-3.84l12.374-3.413v-2.56c-4.694-4.694-7.68-10.667-12.8-14.934a370.773 370.773 0 0 0-41.814-31.573c-8.106-5.12-18.346-8.533-26.88-12.8s-8.106-2.133-9.813-4.693a121.6 121.6 0 0 1-10.667-19.627 706.414 706.414 0 0 1-20.906-44.373 238.933 238.933 0 0 0-12.8-29.014c-26.454-43.52-55.04-69.546-98.987-95.573-9.387-5.547-20.48-7.68-32.427-10.24l-19.2-1.28a97.28 97.28 0 0 1-11.52-8.96c-8.96-5.547-27.306-15.787-42.24-15.787a20.053 20.053 0 0 0-20.906 13.227c-6.827 16.64 10.24 32.853 16.213 41.387a126.293 126.293 0 0 1 12.8 19.2c2.133 4.266 2.133 8.96 3.84 13.226a348.587 348.587 0 0 0 16.64 34.987 117.76 117.76 0 0 0 9.387 15.787c2.133 2.986 5.973 4.266 6.4 8.533s-3.84 12.8-5.974 19.2c-8.96 28.587-5.546 64.427 7.68 85.333 4.267 6.4 13.654 20.48 26.88 15.36s8.96-19.2 12.374-32c.853-2.986.426-5.12 1.706-6.826l10.24 20.906a145.92 145.92 0 0 0 33.28 34.56c5.974 4.694 10.667 12.374 18.774 14.934h-.427c-1.28-2.56-3.84-3.414-5.973-5.12a128.853 128.853 0 0 1-13.227-15.36 344.32 344.32 0 0 1-28.587-46.507c-4.266-7.68-7.68-16.64-11.093-24.32s-1.28-7.68-4.267-9.387c-3.84 5.974-9.386 10.667-12.373 17.494s-5.12 24.32-6.827 38.4h-1.28c-8.106-2.134-11.093-10.24-14.08-17.494a109.653 109.653 0 0 1-2.133-68.266c1.707-5.547 9.387-22.614 6.4-27.307s-6.4-7.68-9.387-11.52a87.893 87.893 0 0 1-9.386-16.213c-6.4-14.08-11.947-30.72-18.774-44.8a126.72 126.72 0 0 0-12.8-19.627c-4.693-6.827-10.24-11.52-14.08-19.627s-2.986-7.253-1.28-10.24a4.693 4.693 0 0 1 3.414-3.413c3.413-2.56 12.8.853 16.213 2.133a143.787 143.787 0 0 1 25.173 12.8c3.84 2.56 7.68 7.254 12.374 8.96h5.12c8.106 1.707 17.493.427 25.173 2.987a149.76 149.76 0 0 1 36.693 17.493 226.133 226.133 0 0 1 80.214 85.76c2.986 5.974 4.266 11.52 7.253 17.494s11.947 25.173 17.493 37.12a170.667 170.667 0 0 0 17.92 34.56z" fill="#fff"/></symbol><symbol id="node" viewBox="0 0 1280 1024"><defs><style/></defs><path d="M632.6 904c-4.2 0-8.4-1.2-12.2-3.2L582 878c-5.8-3.2-3-4.4-1-5 7.6-2.6 9.2-3.2 17.4-8 .8-.4 2-.2 2.8.2l29.6 17.6c1 .6 2.6.6 3.6 0L750 816c1-.6 1.8-1.8 1.8-3.2V679.4c0-1.4-.6-2.6-1.8-3.2l-115.6-66.6c-1-.6-2.4-.6-3.6 0l-115.6 66.6c-1.2.6-1.8 2-1.8 3.2v133.4c0 1.2.8 2.4 1.8 3l31.6 18.2c17.2 8.6 27.8-1.6 27.8-11.6V690.6c0-1.8 1.4-3.4 3.4-3.4h14.6c1.8 0 3.4 1.4 3.4 3.4v131.8c0 23-12.4 36-34.2 36-6.6 0-12 0-26.6-7.2l-30.4-17.4c-7.4-4.4-12.2-12.4-12.2-21V679.4c0-8.6 4.6-16.8 12.2-21l115.6-66.8c7.4-4.2 17-4.2 24.2 0l115.6 66.8c7.4 4.4 12.2 12.4 12.2 21v133.4c0 8.6-4.6 16.8-12.2 21l-115.6 66.8c-3.4 2.2-7.6 3.4-12 3.4zM726 772.4c0-25-16.8-31.6-52.4-36.4-36-4.8-39.6-7.2-39.6-15.6 0-7 3-16.2 29.6-16.2 23.8 0 32.6 5.2 36.2 21.2.4 1.6 1.6 2.6 3.2 2.6h15c1 0 1.8-.4 2.4-1 .6-.8 1-1.6.8-2.6-2.4-27.6-20.6-40.4-57.6-40.4-33 0-52.6 14-52.6 37.2 0 25.4 19.6 32.2 51.2 35.4 37.8 3.8 40.8 9.2 40.8 16.6 0 13-10.4 18.4-34.8 18.4-30.6 0-37.4-7.6-39.6-22.8-.2-1.6-1.6-2.8-3.4-2.8h-15c-1.8 0-3.4 1.4-3.4 3.4 0 19.4 10.6 42.6 61.2 42.6 37 0 58-14.4 58-39.6zm109-100.2c0 12.2-10 22.2-22.2 22.2s-22.2-10-22.2-22.2c0-12.6 10.4-22.2 22.2-22.2 12-.2 22.2 9.6 22.2 22.2zm-3.6 0c0-10.4-8.4-18.6-18.8-18.6-10.2 0-18.6 8.2-18.6 18.6 0 10.4 8.4 18.8 18.6 18.8 10.4-.2 18.8-8.6 18.8-18.8zm-9 12.4h-5.2c-.2-1.2-1-7.6-1-7.8-.4-1.4-.8-2.2-2.6-2.2h-4.4v10h-4.8v-25h8.6c3 0 8.8 0 8.8 6.6 0 4.6-3 5.6-4.8 6.2 3.4.2 3.6 2.4 4.2 5.6.2 2 .6 5.4 1.2 6.6zm-5.6-17.6c0-3.4-2.4-3.4-3.6-3.4h-4v7h3.8c3.2 0 3.8-2.2 3.8-3.6zM274.6 382c0-5.4-2.8-10.2-7.4-12.8l-122.6-70.6c-2-1.2-4.4-1.8-6.8-2h-1.2c-2.4 0-4.6.8-6.8 2L7.4 369.2C2.8 371.8 0 376.8 0 382l.2 190c0 2.6 1.4 5 3.6 6.4 2.2 1.4 5 1.4 7.4 0L84 536.6c4.6-2.8 7.4-7.6 7.4-12.8V435c0-5.2 2.8-10.2 7.4-12.8l31-17.8c2.4-1.4 4.8-2 7.4-2 2.6 0 5.2.6 7.4 2l31 17.8c4.6 2.6 7.4 7.6 7.4 12.8v88.8c0 5.2 2.8 10.2 7.4 12.8l72.8 41.8c2.2 1.4 5.2 1.4 7.4 0 2.2-1.2 3.6-3.8 3.6-6.4l.4-190zM945 174.6v352.8c0 5.2-2.8 10.2-7.4 12.8L815 611c-4.6 2.6-10.2 2.6-14.8 0l-122.6-70.8c-4.6-2.6-7.4-7.6-7.4-12.8V385.8c0-5.2 2.8-10.2 7.4-12.8l122.6-70.8c4.6-2.6 10.2-2.6 14.8 0l30.6 17.6c3.4 2 7.8-.6 7.8-4.4v-188c0-5.6 6-9.2 11-6.4l73 40.8c4.6 2.4 7.6 7.4 7.6 12.8zm-92 257.8c0-1.4-.8-2.6-1.8-3.2l-42-24.4c-1.2-.6-2.6-.6-3.8 0l-42 24.4c-1.2.6-1.8 1.8-1.8 3.2V481c0 1.4.8 2.6 1.8 3.2l42 24.2c1.2.6 2.6.6 3.6 0l42-24.2c1.2-.6 1.8-1.8 1.8-3.2v-48.6zm419.6-1.4c4.6-2.6 7.4-7.6 7.4-12.8V384c0-5.2-2.8-10.2-7.4-12.8l-121.8-70.8c-4.6-2.6-10.2-2.6-14.8 0l-122.6 70.8c-4.6 2.6-7.4 7.6-7.4 12.8v141.6c0 5.4 2.8 10.2 7.4 12.8l121.8 69.4c4.4 2.6 10 2.6 14.6 0l73.6-41c5-2.8 5-10 0-12.8L1100 483.2c-2.4-1.4-3.8-3.8-3.8-6.4v-44.4c0-2.6 1.4-5 3.8-6.4l38.4-22.2c2.2-1.4 5.2-1.4 7.4 0l38.4 22.2c2.2 1.4 3.8 3.8 3.8 6.4v34.8c0 5.6 6.2 9.2 11.2 6.4l73.4-42.6zm-154.6 7c-.8.6-1.4 1.4-1.4 2.4v27.2c0 1 .6 2 1.4 2.4l23.6 13.6c.8.6 2 .6 2.8 0L1168 470c.8-.6 1.4-1.4 1.4-2.4v-27.2c0-1-.6-2-1.4-2.4l-23.6-13.6c-.8-.6-2-.6-2.8 0L1118 438zm-508.4 87V384.2c0-5.2-3.2-10.2-7.8-12.8L479.6 301c-4.2-2.4-10-2.8-14.8 0l-122.2 70.4c-4.6 2.6-7.8 7.4-7.8 12.8V525c0 5.6 3.8 10.4 8 12.8l122.4 70.4c4.8 2.8 10.4 2.6 14.8 0l122-70.4c3.6-2 6.2-5.4 7.2-9.4.2-1 .4-2.2.4-3.4zM461 275.2l-1.6 1h2.2l-.6-1zm152.4 260.4l-.8-1.4v1.8l.8-.4z" fill="#fff"/></symbol><symbol id="php" viewBox="0 0 1280 1024"><defs><style/></defs><path d="M640 209c342.8 0 606.4 144.4 606.4 303S982.6 815 640 815C297.2 815 33.6 670.6 33.6 512S297.4 209 640 209m0-33.6C286.6 175.4 0 326 0 512s286.6 336.6 640 336.6S1280 698 1280 512 993.4 175.4 640 175.4zM436.4 485c-15.8 81-71.6 72.6-140.2 72.6l27.4-141.2c76 0 127.6-8.2 112.8 68.6zM194.8 700.6h73.4l17.4-89.6c82.2 0 133.2 6 180.4-38.2 52.2-48 65.8-133.4 28.6-176.2-19.4-22.4-50.6-33.4-93-33.4H260.2l-65.4 337.4zm371.4-427.2h73L621.8 363c63 0 121.4-4.6 149.6 21.4 29.6 27.2 15.4 62-16.6 226.2h-74c30.8-158.8 36.6-172 25.4-184-10.8-11.6-35.4-9.2-94.8-9.2l-37.6 193.2h-73l65.4-337.2zM1010 485c-16 82.2-73.4 72.6-140.2 72.6l27.4-141.2c76.4 0 127.6-8.2 112.8 68.6zM768.4 700.6H842l17.4-89.6c86.4 0 134.2 5 180.4-38.2 52.2-48 65.8-133.4 28.6-176.2-19.4-22.4-50.6-33.4-93-33.4H834l-65.6 337.4z" fill="#fff"/></symbol><symbol id="sass" viewBox="0 0 1280 1024"><defs><style/></defs><path d="M1102.252 583.8c-44.8.2-83.6 11-116 27-11.8-23.8-24-44.6-26-60.2-2.4-18.2-5-29-2.2-50.6s15.4-52.2 15.2-54.4c-.2-2.2-2.8-13.2-28.6-13.4-25.8-.2-48 5-50.6 11.8-2.6 6.8-7.6 22.2-10.6 38.2-4.6 23.4-51.6 107-78.2 150.6-8.8-17-16.2-32-17.8-44-2.4-18.2-5-29-2.2-50.6s15.4-52.2 15.2-54.4c-.2-2.2-2.8-13.2-28.6-13.4-25.8-.2-48 5-50.6 11.8-2.6 6.8-5.4 22.8-10.6 38.2-5.2 15.4-67.8 154.6-84.2 190.8-8.4 18.4-15.6 33.2-20.8 43.2s-.4.6-.8 1.8c-4.4 8.6-7 13.4-7 13.4v.2c-3.4 6.4-7.2 12.2-9 12.2-1.2 0-3.8-16.8.6-39.8 9.4-48.4 31.6-123.6 31.4-126.2-.2-1.4 4.2-14.4-14.6-21.4-18.2-6.6-24.8 4.4-26.4 4.4-1.6 0-2.8 4-2.8 4s20.2-84.8-38.8-84.8c-36.8 0-88 40.4-113.2 77-15.8 8.6-50 27.2-86 47-13.8 7.6-28 15.4-41.4 22.8-1-1-1.8-2-2.8-3-71.6-76.4-203.8-130.4-198.2-233 2-37.4 15-135.6 254.2-254.8 196-97.6 352.8-70.8 379.8-11.2 38.8 85-83.8 243.2-287.4 266-77.6 8.6-118.4-21.4-128.6-32.6-10.6-11.8-12.2-12.4-16.2-10.2-6.6 3.6-2.4 14 0 20.2 6 15.8 31 43.8 73.6 57.8 37.4 12.2 128.4 19 238.4-23.6 123.6-47.6 219.8-180.2 191.6-291.2-28.8-112.8-215.8-149.8-392.8-87-105.4 37.4-219.4 96.2-301.4 172.8-97.4 91.2-113 170.6-106.6 203.8 22.8 117.8 185.2 194.6 250.2 251.4-3.2 1.8-6.2 3.4-9 5-32.6 16.2-156.4 81-187.4 149.4-35 77.6 5.8 133.2 32.6 140.8 83.6 23.2 169.2-18.6 215.2-87.2s40.4-158.2 19.2-199c-.2-.6-.6-1-.8-1.6 8.4-5 17-10 25.6-15 16.6-9.8 32.8-18.8 47-26.6-8 21.6-13.8 47.6-16.8 85.2-3.6 44 14.6 101 38.2 123.4 10.4 9.8 23 10 30.8 10 27.6 0 40-22.8 53.8-50 17-33.2 32-71.8 32-71.8s-18.8 104.4 32.6 104.4c18.8 0 37.6-24.2 46-36.6v.2s.4-.8 1.4-2.4c2-3 3-4.8 3-4.8v-.6c7.6-13 24.2-42.8 49.2-92 32.4-63.6 63.4-143 63.4-143s2.8 19.4 12.4 51.6c5.6 19 17.4 39.8 26.8 60-7.6 10.4-12.2 16.4-12.2 16.4s0 .2.2.4c-6 8-12.8 16.6-19.8 25-25.6 30.4-56 65.2-60 75.2-4.8 11.8-3.6 20.6 5.6 27.4 6.8 5.2 18.8 6 31.4 5 23-1.6 39.2-7.2 47-10.8 12.4-4.4 26.8-11.4 40.4-21.2 25-18.4 40.2-44.8 38.8-79.6-.8-19.2-7-38.4-14.6-56.4 2.2-3.2 4.6-6.6 6.8-10 39.6-57.8 70.2-121.2 70.2-121.2s2.8 19.4 12.4 51.6c4.8 16.2 14.2 34 22.8 51.4-37.2 30.2-60.2 65.2-68.2 88.2-14.8 42.6-3.2 61.8 18.6 66.2 9.8 2 23.8-2.6 34.2-7 13-4.4 28.6-11.4 43.2-22.2 25-18.4 49.2-44.2 47.6-79.2-.6-15.8-5-31.6-10.8-46.8 31.4-13.2 72.2-20.4 124.2-14.4 111.4 13 133.2 82.6 129 111.6-4.2 29.2-27.6 45.2-35.4 50-7.8 4.8-10.2 6.6-9.6 10.2 1 5.2 4.6 5 11.2 3.8 9.2-1.6 58.4-23.6 60.6-77.4 3.2-68-62.2-142.8-178-142.2zm-858.6 289.4c-36.8 40.2-88.4 55.4-110.6 42.6-23.8-13.8-14.4-73 31-115.8 27.6-26 63.2-50 86.8-64.8 5.4-3.2 13.2-8 22.8-13.8 1.6-1 2.4-1.4 2.4-1.4 1.8-1.2 3.8-2.2 5.8-3.4 16.6 60.8.6 114.4-38.2 156.6zm268.8-182.8c-12.8 31.4-39.8 111.4-56.2 107.2-14-3.6-22.6-64.6-2.8-124.6 10-30.2 31.2-66.2 43.8-80.2 20.2-22.6 42.4-29.8 47.6-20.8 7 11.8-24.4 98.8-32.4 118.4zm222 106c-5.4 2.8-10.4 4.6-12.8 3.2-1.8-1 2.2-4.8 2.2-4.8s27.8-29.8 38.8-43.4c6.4-8 13.8-17.4 21.8-27.8 0 1 .2 2 .2 3.2-.2 35.8-34.6 60-50.2 69.6zm171.2-39c-4-2.8-3.4-12.2 10-41.4 5.2-11.4 17.2-30.6 38-49 2.4 7.6 3.8 14.8 3.8 21.6-.2 45-32.4 61.8-51.8 68.8z" fill="#fff"/></symbol></svg>